<svg id="Layer_1" data-name="Layer 1" xmlns="http://www.w3.org/2000/svg" viewBox="0 0 512 487.91"><title>favorites</title><path id="StarOutline" d="M1217,489q-29.36,28.85-58.72,57.69-30.18,29.53-60.55,58.9a8.19,8.19,0,0,0-2.74,8.25q11.84,68.13,23.44,136.31c1.27,7.38,2.37,14.79,3.82,22.14.85,4.3.32,8-3.27,10.75-3.88,3-7.71,1.93-11.66-.16q-37.29-19.73-74.65-39.3c-22.69-11.93-45.4-23.79-68-35.83a6.77,6.77,0,0,0-7.28,0Q886.73,745.07,816,782.11a25.57,25.57,0,0,1-5.92,2.58c-6.24,1.41-11.67-4.2-10.52-10.94q7.41-43.82,15-87.6c4.14-24.11,8.22-48.24,12.48-72.33.62-3.46-.14-5.74-2.73-8.25q-56.52-54.8-112.82-109.84c-2.22-2.17-4.31-4.48-6.46-6.73v-6c2.25-4.7,6.18-6.34,11.18-7.05,38.05-5.38,76.08-10.95,114.12-16.47,14.49-2.11,29-4.4,43.47-6.27a8,8,0,0,0,7.07-5q35.07-71.43,70.37-142.77a24.25,24.25,0,0,1,3-5.13c4.57-5.33,12-4,15.46,2.9,7.23,14.42,14.29,28.93,21.43,43.39q25,50.79,50.05,101.61c1.56,3.17,3.45,4.51,7.07,5,37.57,5.29,75.09,10.84,112.63,16.31,15,2.19,30,4.47,45,6.45,5,.65,8.94,2.35,11.18,7.06ZM1101.16,758.85c-.3-2.32-.42-3.61-.64-4.9-8.14-47.4-16.19-94.83-24.53-142.2-1.14-6.44.31-11,5.06-15.52q41.78-40.2,83.07-80.92c7.68-7.57,14.76-15.75,22-23.52-3-.47-7-1.16-11.09-1.75-45.13-6.59-90.25-13.28-135.41-19.62-6.24-.87-9.74-3.67-12.41-9.11Q995.72,397,963.89,332.79c-.82-1.66-1.74-3.27-2.94-5.51-1.31,2.57-2.16,4.18-3,5.82Q926.15,397.54,894.37,462c-2.12,4.31-4.68,7.37-9.81,8.1Q826,478.48,767.43,487.07c-10.85,1.57-21.69,3.21-32.53,4.81l-1.06,1.52a28,28,0,0,1,4.55,3q51.76,50.37,103.49,100.8c3.62,3.51,5.32,7.1,4.39,12.39-7.11,40.49-14,81-20.92,121.55-1.53,8.94-3,17.89-4.63,27.66,2.34-1.17,3.82-1.87,5.27-2.64,42.28-22.21,84.61-44.33,126.77-66.76,6-3.21,10.88-3,16.78.11,27.57,14.78,55.33,29.21,83,43.77Z" transform="translate(-705 -296.99)" style="fill:#000"/><path id="starFill" d="M1101.16,758.85l-48.6-25.56c-27.69-14.56-55.45-29-83-43.77-5.9-3.16-10.76-3.32-16.78-.11C910.6,711.84,868.27,734,826,756.17c-1.45.77-2.93,1.47-5.27,2.64,1.64-9.77,3.1-18.72,4.63-27.66,6.93-40.52,13.81-81.06,20.92-121.55.93-5.29-.77-8.88-4.39-12.39q-51.79-50.36-103.49-100.8a28,28,0,0,0-4.55-3l1.06-1.52c10.84-1.6,21.68-3.24,32.53-4.81q58.56-8.52,117.13-16.95c5.13-.73,7.69-3.79,9.81-8.1Q926.1,397.51,958,333.1c.8-1.64,1.65-3.25,3-5.82,1.2,2.24,2.12,3.85,2.94,5.51Q995.6,397,1027.2,461.31c2.67,5.44,6.17,8.24,12.41,9.11,45.16,6.34,90.28,13,135.41,19.62,4,.59,8.08,1.28,11.09,1.75-7.23,7.77-14.31,15.95-22,23.52q-41.32,40.66-83.07,80.92c-4.75,4.57-6.2,9.08-5.06,15.52,8.34,47.37,16.39,94.8,24.53,142.2C1100.74,755.24,1100.86,756.53,1101.16,758.85Z" transform="translate(-705 -296.99)" style="fill:rgba(0,0,0,1);"/></svg>" transform="translate(-705 -296.99)" style="fill:rgba(0,0,0,0);"/></svg>